<svg xmlns="http://www.w3.org/2000/svg" width="560" height="240" viewBox="0 0 560 240" role="img" aria-labelledby="title"><title id="title">NovaWorks</title><defs><pattern id="dots" width="24" height="24" patternUnits="userSpaceOnUse"><circle cx="1" cy="1" r="1" fill="#26332c"/></pattern></defs><style>text{font-family:Arial,Helvetica,sans-serif}.mono{font-family:Consolas,monospace}.pulse{animation:pulse 2s ease-in-out infinite}.signal{stroke-dasharray:6 8;animation:flow 5s linear infinite}@keyframes pulse{50%{opacity:.3}}@keyframes flow{to{stroke-dashoffset:-70}}@media(prefers-reduced-motion:reduce){.pulse,.signal{animation:none}}</style><rect width="560" height="240" rx="18" fill="#101612"/><rect width="560" height="240" rx="18" fill="url(#dots)"/><rect x="1" y="1" width="558" height="238" rx="17" fill="none" stroke="#314036"/><g fill="#c3f85c"><text x="26" y="32" class="mono" font-size="11" letter-spacing="2" fill="#a3b1a8">01 / APPLIED AI</text><text x="26" y="75" font-size="34" font-weight="700" fill="#f0f4ec">NovaWorks</text><text x="530" y="71" text-anchor="end" font-size="27">↗</text><path class="signal" d="M122 153H430" fill="none" stroke="#c3f85c" stroke-width="2"/><rect x="26" y="114" width="142" height="89" rx="9" fill="#1a231b" stroke="#364a37"/><text x="42" y="140" class="mono" font-size="12" fill="#e0e9dd">MEETING</text><path d="M42 157H148M42 170H136M42 183H114" stroke="#69816d" stroke-width="3"/><rect x="209" y="125" width="142" height="68" rx="9" fill="#c3f85c"/><text x="280" y="153" text-anchor="middle" class="mono" font-size="13" fill="#101612">AI → VALIDATE</text><text x="280" y="175" text-anchor="middle" class="mono" font-size="11" fill="#334b18">SAVE TOGETHER</text><rect x="392" y="114" width="142" height="89" rx="9" fill="#1a231b" stroke="#364a37"/><text x="408" y="140" class="mono" font-size="12" fill="#e0e9dd">ASSIGNED WORK</text><path d="M407 159l4 4 7-8M407 178l4 4 7-8" fill="none" stroke="#c3f85c" stroke-width="2"/><path d="M431 160H514M431 179H494" stroke="#69816d" stroke-width="3"/></g></svg>
